<?xml version="1.0" encoding="UTF-8" standalone="no"?>
<!DOCTYPE svg PUBLIC "-//W3C//DTD SVG 1.1//EN" "http://www.w3.org/Graphics/SVG/1.1/DTD/svg11.dtd">
<svg width="100%" height="100%" viewBox="0 0 55 54" version="1.1" xmlns="http://www.w3.org/2000/svg" xmlns:xlink="http://www.w3.org/1999/xlink" xml:space="preserve" xmlns:serif="http://www.serif.com/" style="fill-rule:evenodd;clip-rule:evenodd;stroke-linejoin:round;stroke-miterlimit:2;">
    <g transform="matrix(0.811355,0,0,0.811355,-839.659,-911.652)">
        <circle cx="1084.59" cy="1138.36" r="14.581" style="fill:rgb(35,31,32);"/>
    </g>
    <g transform="matrix(0.908949,0,0,0.908949,-973.329,-1019.27)">
        <path d="M1112.93,1153.42L1113.12,1153.19C1113.12,1153.19 1113.12,1153.2 1113.12,1153.2L1112.93,1153.42Z" style="fill:rgb(68,125,182);"/>
    </g>
    <g transform="matrix(0.908949,0,0,0.908949,-964.626,-1018.98)">
        <path d="M1104.12,1163.7L1090.9,1179.05L1090.96,1165.28L1090.96,1165.27C1090.96,1160.92 1092.9,1157.02 1095.97,1154.38L1104.12,1163.7Z" style="fill:rgb(68,125,182);"/>
    </g>
    <g transform="matrix(0.389586,5.77813e-19,-3.87233e-19,-0.257927,-382.971,330.899)">
        <path d="M1070.56,1172.18L1087.45,1142.03L1104.59,1172.64C1100.53,1176.56 1095.83,1179.09 1090.77,1179.81L1084.86,1179.81C1079.6,1179.06 1074.72,1176.36 1070.56,1172.18Z" style="fill:rgb(35,31,32);"/>
    </g>
    <g transform="matrix(0.843446,0.724954,-0.906046,1.05414,159.221,-1995.64)">
        <path d="M1112.64,1156.66C1116,1156.62 1119.36,1157.73 1121.72,1159.92L1121.73,1159.93L1130.18,1167.83L1112.77,1179.81L1112.64,1156.66Z" style="fill:rgb(157,74,83);"/>
    </g>
    <g transform="matrix(1.11698,0,0,0.431956,-1011.97,-530.156)">
        <path d="M926.083,1226.68L926.083,1253.71L929.564,1261.68L926.078,1268.55L926.005,1354.49L904.909,1354.9L904.738,1261.66L904.738,1226.68L926.083,1226.68Z" style="fill:rgb(35,31,32);"/>
    </g>
</svg>
